<?xml version="1.0" encoding="UTF-8"?>
<svg
    xmlns="http://www.w3.org/2000/svg"
    version="1.1"
    viewBox="0 0 512 384">
    <path
        d="M42.689453 0C19.039237 0 0 19.039237 0 42.689453L0 341.31055C0 364.96076 19.039237 384 42.689453 384L469.31055 384C492.96076 384 512 364.96076 512 341.31055L512 42.689453C512 19.039237 492.96076 0 469.31055 0L42.689453 0ZM54.355469 15L457.64453 15C479.44708 15 497 32.552924 497 54.355469L497 329.64453C497 351.44708 479.44708 369 457.64453 369L54.355469 369C32.552924 369 15 351.44708 15 329.64453L15 54.355469C15 32.552924 32.552924 15 54.355469 15Z"
        fill="#f16436">
    </path>
    <path
        d="M354.63033 146.28296c0 0 76.40294-12.68136 88.46877-49.667749H326.06027V67.267262H68.900905l31.679005 38.693368v39.64439c0 0 79.93329-4.37498 110.85288 20.30506 42.32408 41.29317-47.60218 97.1115-47.60218 97.1115l-15.4203 53.71116c24.11332-24.16904 70.07113-55.4329 154.33329-53.92593-32.06652 10.66715-64.30911 27.32875-89.41009 53.92593H383.6681l-16.03856-53.71116c0 0-123.45545-76.62583-12.9992-116.73363Z"
        fill="#f16436">
    </path>
</svg>
