<?xml version="1.0" encoding="UTF-8"?>
<svg
    xmlns="http://www.w3.org/2000/svg"
    version="1.1"
    viewBox="0 0 512 384">
    <path
        d="M42.689453 0C19.039237 0 0 19.039237 0 42.689453L0 341.31055C0 364.96076 19.039237 384 42.689453 384L469.31055 384C492.96076 384 512 364.96076 512 341.31055L512 42.689453C512 19.039237 492.96076 0 469.31055 0L42.689453 0ZM54.355469 15L457.64453 15C479.44708 15 497 32.552924 497 54.355469L497 329.64453C497 351.44708 479.44708 369 457.64453 369L54.355469 369C32.552924 369 15 351.44708 15 329.64453L15 54.355469C15 32.552924 32.552924 15 54.355469 15Z"
        fill="#f16436"></path>
    <path
        d="M334.49496 128.4463c0 0 60.8053-10.09247 70.40787-39.528084H311.75746V65.56165H107.09717l25.21173 30.794126v31.550984c0 0 63.61492-3.48182 88.22228 16.15978 33.68361 32.86317-37.88421 77.28621-37.88421 77.28621l-12.27225 42.74603c19.1906-19.23494 55.76612-44.11628 122.82618-42.91697-25.52016 8.48946-51.18043 21.7496-71.15704 42.91697h135.56082l-12.7643-42.74603c0 0-98.25204-60.98268-10.34541-92.90248Z"
        fill="#f16436"></path>
    <path
        d="M57.759967 326.41055h26.88v-6.72h-20.16v-20.16h20.16v-6.72h-26.88Zm26.88-6.72h6.72v-20.16h-6.72Zm13.440008 6.72h33.599995v-6.72h-26.88v-6.72h13.44v-6.72h-13.44v-6.72h26.88v-6.72H98.079975Zm40.320005 0h6.72v-13.44h20.16v-6.72h-20.16v-6.72h20.16v-6.72h-26.88Zm26.88-20.16h6.72v-6.72h-6.72Zm13.44001 20.16h6.72v-13.44h20.16v-6.72h-20.16v-6.72h20.16v-6.72h-26.88Zm26.88-20.16h6.72v-6.72h-6.72Zm0 20.16h6.72v-13.44h-6.72Zm13.44001 0h33.6v-6.72h-26.88v-6.72h13.44v-6.72h-13.44v-6.72h26.88v-6.72h-33.6Zm47.04-26.88h20.16v-6.72h-20.16Zm-6.72 20.16h6.72v-20.16h-6.72Zm26.88-13.44h6.72v-6.72h-6.72Zm0 13.44h6.72v-6.72h-6.72Zm-20.16 6.72h20.16v-6.72h-20.16Zm40.32001-26.88h20.16v-6.72h-20.16Zm-6.72 26.88h6.72v-6.72h20.16v6.72h6.72v-26.88h-6.72v13.44h-20.16v-13.44h-6.72Zm40.32001-26.88h13.44v26.88h6.72v-26.88h13.44v-6.72h-33.6Zm40.32001 26.88h33.6v-6.72h-26.88v-6.72h13.44v-6.72h-13.44v-6.72h26.88v-6.72h-33.6Zm40.32 0h26.88v-6.72h-20.16v-20.16h20.16v-6.72h-26.88Zm26.88-6.72h6.72v-20.16h-6.72Z"
        fill="#ffb000"></path>
</svg>
