<?xml version="1.0" encoding="UTF-8"?>
<svg
    xmlns="http://www.w3.org/2000/svg"
    version="1.1"
    viewBox="0 0 512 384">
    <path
        d="M42.689453 0C19.039237 0 0 19.039237 0 42.689453L0 341.31055C0 364.96076 19.039237 384 42.689453 384L469.31055 384C492.96076 384 512 364.96076 512 341.31055L512 42.689453C512 19.039237 492.96076 0 469.31055 0L42.689453 0ZM54.355469 15L457.64453 15C479.44708 15 497 32.552924 497 54.355469L497 329.64453C497 351.44708 479.44708 369 457.64453 369L54.355469 369C32.552924 369 15 351.44708 15 329.64453L15 54.355469C15 32.552924 32.552924 15 54.355469 15Z"
        fill="#00af5c">
    </path>
    <g
        transform="matrix(0.91523605 0 0 0.91523605 21.900786 14.584596)"
        fill="#00af5c">
        <path
            d="M413.28398 236.26217c7.25831-26.82198 7.74899-55.85523 0.0255-84.62721C389.96688 64.630802 300.41372 12.994187 213.29485 36.304904 146.05191 54.30093 99.902049 111.68557 93.083429 176.94029h27.593061c6.56371-52.98123 44.4484-99.245799 99.25854-113.915365 67.73999-18.12985 137.25156 18.454848 161.49267 82.632605l-26.85385 7.18184c-12.35633-29.8553-37.25381-51.74495-66.73951-61.06796l-4.93233 27.93717c23.27885 8.58381 42.16066 27.93718 49.06848 53.68858 10.0686 37.52784-8.67939 75.97968-42.69595 91.93013l7.34752 27.3955c44.70967-18.44847 71.56989-64.91059 65.21647-112.80654l26.75189-7.15635a133.93784 133.93784 0 0 1-2.4598 53.63122Z">
        </path>
        <path
            d="M297.83284 351.38831C210.70761 374.69903 121.1608 323.06242 97.811849 236.05826a164.12835 164.12835 0 0 1-5.16812-30.44796h27.573941c0.6946 7.58969 2.03921 15.22398 4.08479 22.83278 2.14117 7.97204 4.95146 15.58721 8.35439 22.80091l24.59159-14.7524c-2.07107-4.7794-3.81714-9.76272-5.20635-14.94359-15.31957-57.09788 18.60779-115.78888 75.78213-131.089331 10.8333-2.899502 21.73033-4.027439 32.37246-3.57499l-4.93234 27.943551c-6.66567 0.0318-13.4333 0.90489-20.17543 2.70833-42.1989 11.29849-67.24294 54.61258-55.93808 96.7605 0.70098 2.59362 1.51667 5.12351 2.44706 7.58331l31.44843-18.86906-9.47595-25.1269 29.69599-30.5053 37.53421-8.08673 10.86517 13.37594-17.30143 17.52446-15.09015 4.74753-10.78233 11.08183 5.28284 14.70143c0 0 10.69947 11.36859 10.71859 11.37496l15.11564-4.02106 10.75684-11.81467 23.48914-7.43675 6.99704 15.74015-24.23473 29.71512-40.61214 12.85976-18.21269-20.27739-31.74795 19.04749c16.27545 18.53132 40.74596 28.82296 66.115 26.67542l7.34754 27.39551c-37.85921 5.00881-74.839-10.66124-97.81198-39.45234l-24.47689 14.68231c32.25138 42.37096 88.06837 63.36207 142.72557 48.73711 39.344-10.52742 69.96402-37.34302 86.54534-71.23214l27.17246 9.87742c-19.68474 42.23714-57.25081 75.79488-105.82861 88.79484Z">
        </path>
    </g>
</svg>
